<?xml version="1.0" standalone="no"?>
<!DOCTYPE svg PUBLIC "-//W3C//DTD SVG 20010904//EN"
 "http://www.w3.org/TR/2001/REC-SVG-20010904/DTD/svg10.dtd">
<svg version="1.0" xmlns="http://www.w3.org/2000/svg"
 width="214.000000pt" height="189.000000pt" viewBox="0 0 214.000000 189.000000"
 preserveAspectRatio="xMidYMid meet">
<metadata>
Created by potrace 1.10, written by Peter Selinger 2001-2011
</metadata>
<g transform="translate(0.000000,189.000000) scale(0.100000,-0.100000)"
fill="#000000" stroke="none">
<path d="M958 1789 c-92 -12 -214 -59 -295 -112 -66 -43 -143 -108 -143 -119
0 -8 146 -98 159 -98 6 0 11 4 11 8 0 14 123 89 185 112 73 28 224 38 306 21
66 -14 181 -67 225 -104 l31 -26 67 61 c65 59 67 61 49 80 -26 29 -94 75 -162
108 -124 62 -293 89 -433 69z"/>
<path d="M1594 1520 c-126 -99 -233 -180 -237 -180 -5 0 -5 9 -2 20 13 41 -12
17 -69 -67 l-59 -86 34 6 c19 4 59 9 89 12 79 9 87 13 64 29 -16 12 8 27 248
147 l267 134 -48 78 c-27 43 -51 80 -53 83 -3 2 -108 -77 -234 -176z"/>
<path d="M261 1528 l-38 -83 26 -12 c38 -19 506 -183 519 -183 20 0 13 -16
-10 -27 -18 -8 -2 -12 80 -18 57 -4 105 -6 107 -4 2 2 -25 39 -60 82 -58 70
-64 75 -67 52 -3 -24 -13 -20 -252 125 -138 82 -254 150 -258 150 -5 0 -26
-37 -47 -82z"/>
<path d="M1650 1339 c-41 -22 -76 -42 -78 -44 -2 -1 4 -29 14 -61 10 -35 17
-91 16 -139 -2 -217 -135 -400 -345 -477 l-59 -21 7 -81 c4 -45 11 -85 16 -90
11 -12 103 16 179 54 227 114 372 335 387 585 5 97 -11 202 -44 274 l-18 40
-75 -40z"/>
<path d="M376 1321 c-2 -3 -11 -41 -20 -83 -32 -152 -14 -291 54 -433 69 -143
168 -245 310 -319 61 -32 186 -76 215 -76 9 0 15 22 20 68 3 37 8 77 11 89 3
19 -3 24 -53 38 -253 73 -422 319 -385 558 6 34 13 69 16 77 5 11 -15 24 -79
51 -47 20 -87 34 -89 30z"/>
<path d="M1071 869 c-5 -13 -23 -55 -40 -92 -37 -81 -36 -81 -12 -67 27 14 30
13 25 -7 -2 -10 -13 -130 -24 -268 -11 -137 -22 -262 -25 -277 l-4 -28 99 0
100 0 -6 43 c-21 165 -61 543 -58 546 2 3 10 -1 16 -7 28 -28 24 -7 -14 81
-23 50 -42 94 -44 96 -2 2 -8 -7 -13 -20z"/>
</g>
</svg>
